<?xml version="1.0" encoding="UTF-8" standalone="no"?>
<svg xmlns:inkscape="http://www.inkscape.org/namespaces/inkscape" xmlns:sodipodi="http://sodipodi.sourceforge.net/DTD/sodipodi-0.dtd" xmlns="http://www.w3.org/2000/svg" xmlns:svg="http://www.w3.org/2000/svg" width="100" height="100" viewBox="0 0 26.458333 26.458333" version="1.1" id="svg1" xml:space="preserve">
  <defs id="defs1">
    <rect x="-46.45332" y="-38.711102" width="296.41641" height="360.56625" id="rect5"></rect>
  </defs>
  <g id="layer1" transform="translate(-73.499465,-25.68605)">
    <text xml:space="preserve" style="font-style:normal;font-variant:normal;font-weight:500;font-stretch:normal;font-size:13.0789px;line-height:0.8;font-family:'Fira Sans';-inkscape-font-specification:'Fira Sans Medium';text-align:start;writing-mode:lr-tb;direction:ltr;text-anchor:start;display:none;fill:#005f9e;fill-opacity:1;stroke:#ffffff;stroke-width:0;stroke-linecap:round;stroke-linejoin:round;paint-order:stroke markers fill" x="94.164841" y="47.377148" id="text9" transform="scale(0.97450585,1.0261611)">
      <tspan id="tspan8" style="fill:#005f9e;fill-opacity:1;stroke-width:0" x="0" y="0">en Español</tspan>
    </text>
    <text xml:space="preserve" style="font-size:14.588px;line-height:0.8;font-family:'.SF NS Rounded';-inkscape-font-specification:'.SF NS Rounded';text-align:end;writing-mode:lr-tb;direction:ltr;text-anchor:end;display:none;fill:#005f9e;fill-opacity:1;stroke:#000000;stroke-width:0;stroke-linecap:round;stroke-linejoin:round;paint-order:stroke markers fill" x="89.697456" y="38.882698" id="text2" transform="scale(1.0524898,0.95012797)">
      <tspan style="font-style:normal;font-variant:normal;font-weight:normal;font-stretch:normal;font-family:'Fira Sans';-inkscape-font-specification:'Fira Sans';text-align:start;text-anchor:start;fill:#005f9e;fill-opacity:1;stroke-width:0" x="0" y="0" id="tspan3">
        <tspan style="font-style:normal;font-variant:normal;font-weight:bold;font-stretch:normal;font-family:'Fira Sans';-inkscape-font-specification:'Fira Sans Bold';fill:#005f9e;fill-opacity:1;stroke-width:0" id="tspan4">Filament</tspan>
      </tspan>
    </text>
    <g style="display:inline;fill:#005f9e;fill-opacity:1" id="g5" transform="matrix(1.2228048,0,0,1.2228048,72.034376,23.550829)">
      <path d="m 9.97308,18 h 4.05382 c 0.132,-1.2016 0.7452,-2.1935 1.7407,-3.2774 0.1121,-0.122 0.8312,-0.8662 0.9165,-0.9725 C 17.5318,12.6931 18,11.385 18,10 18,6.68629 15.3137,4 12,4 8.68629,4 6,6.68629 6,10 c 0,1.3843 0.46774,2.6917 1.31462,3.7484 0.08542,0.1066 0.80619,0.8528 0.91692,0.9734 C 9.22766,15.8064 9.84103,16.7984 9.97308,18 Z M 14,20 h -4 v 1 h 4 z M 5.75395,14.9992 C 4.65645,13.6297 4,11.8915 4,10 4,5.58172 7.58172,2 12,2 c 4.4183,0 8,3.58172 8,8 0,1.8925 -0.6572,3.6315 -1.7557,5.0014 C 17.624,15.7748 16,17 16,18.5 V 21 c 0,1.1046 -0.8954,2 -2,2 H 10 C 8.89543,23 8,22.1046 8,21 V 18.5 C 8,17 6.37458,15.7736 5.75395,14.9992 Z" id="path1" style="fill:#005f9e;fill-opacity:1"></path>
      <path style="font-weight:500;font-size:14px;line-height:0.8;font-family:'Fira Sans';-inkscape-font-specification:'Fira Sans Medium';white-space:pre;inline-size:38.5615;fill:#005f9e;fill-opacity:1;stroke:#ffffff;stroke-width:0;stroke-linecap:round;stroke-linejoin:round;paint-order:stroke markers fill" d="m 107.88267,60.459861 c -1.15062,0 -2.16428,-0.19179 -3.04093,-0.575311 -0.82187,-0.43835 -1.7807,-1.013643 -2.87655,-1.725932 -0.82187,-0.547895 -1.47936,-0.931456 -1.972487,-1.150621 -0.493124,-0.273976 -1.013663,-0.410936 -1.561558,-0.410936 -0.931474,0 -1.725932,0.301334 -2.383429,0.90406 -0.602726,0.547895 -1.260224,1.479371 -1.972494,2.794366 l -5.670919,-2.794366 c 1.09585,-2.575203 2.465616,-4.629882 4.109361,-6.164042 1.643745,-1.588956 3.561467,-2.383431 5.753107,-2.383431 1.205393,0 2.219059,0.19179 3.040919,0.575311 0.87665,0.383521 1.89031,0.931457 3.04093,1.643744 0.71227,0.547897 1.315,0.95885 1.80812,1.23281 0.54772,0.219145 1.09585,0.328748 1.64375,0.328748 0.82186,0 1.56156,-0.273977 2.21905,-0.821872 0.6575,-0.547895 1.36978,-1.451973 2.13686,-2.712178 l 5.58874,2.794365 c -1.09584,2.629992 -2.49303,4.71207 -4.19155,6.246229 -1.69851,1.479371 -3.58882,2.219056 -5.67092,2.219056 z" id="text8" aria-label="ñ" transform="matrix(0.28484102,0,0,0.28484102,-17.318779,-5.3164406)"></path>
    </g>
  </g>
  <style type="text/css" id="style1">

	.st0{fill:#000000;}

</style>
</svg>
